# xmcd CD database file
#
# Track frame offsets:
#	150
#	16937
#	34502
#	48680
#	64552
#	84144
#	98572
#	119253
#
# Disc length: 1770 seconds
#
# Revision: 1
# Processed by: cddbd v1.4PL0 Copyright (c) Steve Scherf et al.
# Submitted via: CDex 1.40Beta8
#
DISCID=5306e808
DTITLE=Blues Cousins - Hoochie Coochie Man
DYEAR=2001
DGENRE=Blues
TTITLE0=Crossroads
TTITLE1=Hoochie Coochie Man
TTITLE2=Sleepless Night
TTITLE3=Johnny Guitar
TTITLE4=What You Want Me To Do
TTITLE5=You Better Watch Yourself
TTITLE6=I'll Be Waiting
TTITLE7=You Don't Love Me
EXTD=YEAR: 2001 ID3G: 0
EXTT0=
EXTT1=
EXTT2=
EXTT3=
EXTT4=
EXTT5=
EXTT6=
EXTT7=
PLAYORDER=
